<svg xmlns="http://www.w3.org/2000/svg" id="svg4162" width="16" height="16">
  <defs id="defs4150"/>
  <g id="Layer_2" data-name="Layer 2" transform="matrix(.91824 0 0 1.2381 1.073 1.022)">
    <g id="Layer_1-2" data-name="Layer 1">
      <path d="M2.07 3.72C3.64 3 4.82 4.08 5.83 3 7.25 1.58 9.65-.21 11.9.79a4.38 4.38 0 0 1 2.72 5.48c-.5 1.76-2.41 3.85-6.08 4.36C4.87 11.14 1.91 9.86.92 8a3.13 3.13 0 0 1 1.15-4.28z" id="path4154" fill="#fff" stroke="#000" stroke-linecap="round" stroke-linejoin="round"/>
      <circle class="cls-2" cx="3.56" cy="7.05" r="1.33" id="circle4156" fill="#fff" stroke="#000" stroke-width=".67" stroke-linecap="round" stroke-linejoin="round"/>
      <path class="cls-2" d="M6.86 8.23c-1.18-1.3 1.31-5.81 3.49-5.86a3 3 0 0 1 2.94 3.25C12.8 7.52 8 9.43 6.86 8.23z" id="path4158" fill="#fff" stroke="#000" stroke-width=".67" stroke-linecap="round" stroke-linejoin="round"/>
    </g>
  </g>
</svg>
