<svg xmlns="http://www.w3.org/2000/svg" width="16" height="16">
  <g data-name="Layer 2">
    <g data-name="Layer 1">
      <path d="M9.881 14.308c-2.718 0-5.705-2.068-7.117-4.93-1.651-3.33-.63-6.768 2.222-7.507a3.513 2.546 0 0 1 1.186-.142c2.703 0 5.706 2.067 7.117 4.93a12.011 8.705 0 0 1 .526 4.885 4.73 3.428 0 0 1-2.763 2.622 3.423 2.48 0 0 1-1.171.142z" fill-opacity="0" />
      <path d="M6.172 2.447c1.922 0 4.745 1.567 6.171 4.45a11.095 8.041 0 0 1 .496 4.473 3.919 2.84 0 0 1-2.117 2.11 2.312 1.676 0 0 1-.841.11c-1.937 0-4.744-1.567-6.17-4.45-1.592-3.265-.421-6.062 1.62-6.584a2.537 1.839 0 0 1 .841-.109m0-1.447a4.73 3.428 0 0 0-1.5.185c-3.44.903-4.715 4.668-2.854 8.444 1.592 3.264 4.97 5.44 8.063 5.44a4.414 3.2 0 0 0 1.501-.184c3.439-.925 4.7-4.701 2.838-8.444C12.629 3.176 9.265 1 6.172 1z"/>
    </g>
  </g>
</svg>
