<svg xmlns="http://www.w3.org/2000/svg" viewBox="0 0 9.4 12.9"><defs><style>.cls-1{fill:#fff;}</style></defs><title>ellipse 20</title><g id="Layer_2" data-name="Layer 2"><g id="Layer_1-2" data-name="Layer 1"><path class="cls-1" d="M5.94,12.23c-1.81,0-3.8-1.9-4.74-4.53C.1,4.64.78,1.48,2.68.8A2.34,2.34,0,0,1,3.47.67c1.8,0,3.8,1.9,4.74,4.53a8,8,0,0,1,.35,4.49A3.15,3.15,0,0,1,6.72,12.1a2.28,2.28,0,0,1-.78.13Z"/><path d="M3.47,1.33c1.28,0,3.16,1.44,4.11,4.09a7.39,7.39,0,0,1,.33,4.11A2.61,2.61,0,0,1,6.5,11.47a1.54,1.54,0,0,1-.56.1c-1.29,0-3.16-1.44-4.11-4.09-1.06-3-.28-5.57,1.08-6.05a1.69,1.69,0,0,1,.56-.1M3.47,0a3.15,3.15,0,0,0-1,.17C.18,1-.67,4.46.57,7.93c1.06,3,3.31,5,5.37,5a2.94,2.94,0,0,0,1-.17C9.23,11.91,10.07,8.44,8.83,5,7.77,2,5.53,0,3.47,0Z"/></g></g></svg>